<?xml version="1.0" standalone="no"?><!DOCTYPE svg PUBLIC "-//W3C//DTD SVG 1.1//EN" "http://www.w3.org/Graphics/SVG/1.1/DTD/svg11.dtd"><svg class="icon" width="200px" height="200.00px" viewBox="0 0 1024 1024" version="1.1" xmlns="http://www.w3.org/2000/svg"><path d="M720.424 842.308v69.553H303.106v-69.553h417.318z m69.553-69.553V494.543c0-38.413-31.14-69.553-69.553-69.553H303.106c-38.413 0-69.553 31.14-69.553 69.553v278.212c0 38.413 31.14 69.553 69.553 69.553v69.553l-7.166-0.17C222.444 907.962 164 847.178 164 772.755V494.543c0-76.826 62.28-139.105 139.106-139.105h417.318c76.826 0 139.106 62.279 139.106 139.105v278.212l-0.17 7.166c-3.609 71.123-60.647 128.161-131.77 131.77l-7.166 0.17v-69.553c38.413 0 69.553-31.14 69.553-69.553z" fill="#000000" /><path d="M685.646 355.435c0-96.032-77.85-173.882-173.883-173.882-96.033 0-173.882 77.85-173.882 173.882v69.553h-69.553v-69.553C268.328 220.99 377.317 112 511.763 112s243.436 108.99 243.436 243.435v69.553h-69.553v-69.553z" fill="#000000" /><path d="M546.54 668.431c0-19.207-15.57-34.777-34.777-34.777-19.206 0-34.776 15.57-34.776 34.777 0 19.206 15.57 34.776 34.776 34.776v69.553c-57.619 0-104.329-46.71-104.329-104.329 0-57.62 46.71-104.329 104.329-104.329 57.62 0 104.33 46.709 104.33 104.329 0 57.619-46.71 104.329-104.33 104.329v-69.553c19.207 0 34.777-15.57 34.777-34.776z" fill="#3B72FF" /></svg>