<?xml version="1.0" standalone="no"?><!DOCTYPE svg PUBLIC "-//W3C//DTD SVG 1.1//EN" "http://www.w3.org/Graphics/SVG/1.1/DTD/svg11.dtd"><svg class="icon" width="200px" height="200.00px" viewBox="0 0 1024 1024" version="1.1" xmlns="http://www.w3.org/2000/svg"><path d="M716.245 364.132c27.12-27.118 27.12-71.087 0-98.206l-6.618-6.617c-27.119-27.119-71.089-27.119-98.208 0l-241.998 241.99a69.483 69.483 0 0 0-17.263 28.676l-41.6 135.009 135.037-41.574a69.47 69.47 0 0 0 28.652-17.287l241.998-241.991zM523.352 655.226a138.945 138.945 0 0 1-57.329 34.549L268.287 750.65c-26.647 8.207-51.605-16.75-43.398-43.396l60.877-197.731a138.938 138.938 0 0 1 34.551-57.327l241.997-241.99c52.543-52.541 136.718-54.193 191.239-4.939l5.179 4.939 6.617 6.617c54.24 54.238 54.24 142.175 0 196.412L523.352 655.226z" fill="#000000" /><path d="M197.46 877.799c0-19.175 15.546-34.72 34.722-34.72h624.989c19.176 0 34.721 15.545 34.721 34.72 0 19.176-15.545 34.721-34.721 34.721H232.182c-19.176 0-34.722-15.545-34.722-34.721z" fill="#3B72FF" /></svg>