<?xml version="1.0" standalone="no"?><!DOCTYPE svg PUBLIC "-//W3C//DTD SVG 1.1//EN" "http://www.w3.org/Graphics/SVG/1.1/DTD/svg11.dtd"><svg class="icon" width="200px" height="200.00px" viewBox="0 0 1024 1024" version="1.1" xmlns="http://www.w3.org/2000/svg"><path d="M512.116 212c254.321 0 400.117 271.212 400.117 300.087 0 28.874-145.796 300.086-400.117 300.086v-66.686c102.08 0 185.854-54.386 247.208-118.589 30.316-31.726 53.558-64.272 68.932-89.967a315.687 315.687 0 0 0 13.383-24.844 315.503 315.503 0 0 0-13.383-24.845c-15.374-25.694-38.616-58.241-68.932-89.967-61.354-64.203-145.128-118.589-247.208-118.589-102.08 0-185.854 54.386-247.207 118.589-30.317 31.726-53.559 64.273-68.933 89.967a317.084 317.084 0 0 0-13.415 24.845 317.27 317.27 0 0 0 13.415 24.844c15.374 25.695 38.616 58.241 68.933 89.967 61.353 64.203 145.127 118.589 247.207 118.589v66.686C257.795 812.173 112 540.961 112 512.087 112 483.212 257.795 212 512.116 212z" fill="#000000" /><path d="M578.799 512.089c0-36.83-29.856-66.686-66.686-66.686-36.829 0-66.686 29.856-66.686 66.686 0 36.829 29.857 66.686 66.686 66.686v66.686c-73.659 0-133.372-59.713-133.372-133.372 0-73.66 59.713-133.372 133.372-133.372 73.66 0 133.372 59.712 133.372 133.372 0 73.659-59.712 133.372-133.372 133.372v-66.686c36.83 0 66.686-29.857 66.686-66.686z" fill="#3B72FF" /></svg>