<?xml version="1.0" standalone="no"?><!DOCTYPE svg PUBLIC "-//W3C//DTD SVG 1.1//EN" "http://www.w3.org/Graphics/SVG/1.1/DTD/svg11.dtd"><svg class="icon" width="200px" height="200.00px" viewBox="0 0 1024 1024" version="1.1" xmlns="http://www.w3.org/2000/svg"><path d="M778.86 829.202v66.685H245.372v-66.685H778.86z m66.686-66.686V629.144c0-36.83-29.856-66.686-66.686-66.686h-74.077a56.68 56.68 0 0 0-44.251 21.263c-76.083 95.102-220.749 95.102-296.831 0a56.683 56.683 0 0 0-44.251-21.263h-74.078c-36.83 0-66.686 29.856-66.686 66.686v133.372c0 36.829 29.856 66.686 66.686 66.686v66.685c-71.355 0-129.634-56.034-133.209-126.501l-0.163-6.87V629.144c0-73.659 59.713-133.372 133.372-133.372h74.078a123.401 123.401 0 0 1 96.349 46.302c47.844 59.794 137.429 61.66 187.88 5.601l4.754-5.601a123.411 123.411 0 0 1 89.349-46.107l7.001-0.195h74.077l6.871 0.163c70.467 3.575 126.502 61.854 126.502 133.209v133.372c0 71.355-56.035 129.633-126.502 133.209l-6.871 0.162v-66.685c36.83 0 66.686-29.857 66.686-66.686z" fill="#000000" /><path d="M745.517 295.715c0-55.245-44.784-100.029-100.029-100.029H378.744c-55.245 0-100.029 44.784-100.029 100.029v266.743h-66.686V295.715C212.029 203.641 286.67 129 378.744 129h266.744c92.074 0 166.715 74.641 166.715 166.715v266.743h-66.686V295.715z" fill="#000000" /><path d="M345.402 362.399c0-18.414 14.928-33.342 33.343-33.342h266.744c18.415 0 33.343 14.928 33.343 33.342 0 18.414-14.928 33.342-33.343 33.342H378.745c-18.415 0-33.343-14.928-33.343-33.342z" fill="#3B72FF" /></svg>