<?xml version="1.0" standalone="no"?><!DOCTYPE svg PUBLIC "-//W3C//DTD SVG 1.1//EN" "http://www.w3.org/Graphics/SVG/1.1/DTD/svg11.dtd"><svg class="icon" width="200px" height="200.00px" viewBox="0 0 1024 1024" version="1.1" xmlns="http://www.w3.org/2000/svg"><path d="M402.926 402.925v72.732H293.829v-72.732h109.097z m0-109.097c0-60.252-48.845-109.097-109.097-109.097-60.253 0-109.098 48.845-109.098 109.097 0 60.253 48.845 109.097 109.098 109.097v72.732C193.407 475.657 112 394.249 112 293.828S193.407 112 293.829 112c100.421 0 181.828 81.407 181.828 181.828v109.097c0 37.663-28.628 68.622-65.309 72.341l-7.422 0.391V293.828zM402.926 730.215V621.118H293.829c-60.253 0-109.098 48.844-109.098 109.097 0 60.252 48.845 109.097 109.098 109.097v72.731C193.407 912.043 112 830.636 112 730.215s81.407-181.829 181.829-181.829h109.097c40.168 0 72.731 32.563 72.731 72.732v109.097c0 100.421-81.407 181.828-181.828 181.828v-72.731c60.252 0 109.097-48.845 109.097-109.097zM730.218 402.925v72.732H621.12v-72.732h109.098z m109.097-109.097c0-60.252-48.845-109.097-109.097-109.097-60.253 0-109.098 48.845-109.098 109.097v181.829l-7.422-0.391c-34.24-3.471-61.447-30.678-64.918-64.918l-0.391-7.423V293.828C548.389 193.407 629.796 112 730.218 112c100.421 0 181.828 81.407 181.828 181.828s-81.407 181.829-181.828 181.829v-72.732c60.252 0 109.097-48.844 109.097-109.097z" fill="#000000" /><path d="M548.389 730.215V621.118c0-40.169 32.563-72.732 72.731-72.732h109.098c100.421 0 181.828 81.408 181.828 181.829s-81.407 181.828-181.828 181.828v-72.731c60.252 0 109.097-48.845 109.097-109.097 0-60.253-48.845-109.097-109.097-109.097H621.12v109.097c0 60.252 48.845 109.097 109.098 109.097v72.731c-100.422 0-181.829-81.407-181.829-181.828z" fill="#3B72FF" /></svg>