<?xml version="1.0" standalone="no"?><!DOCTYPE svg PUBLIC "-//W3C//DTD SVG 1.1//EN" "http://www.w3.org/Graphics/SVG/1.1/DTD/svg11.dtd"><svg class="icon" width="200px" height="200.00px" viewBox="0 0 1024 1024" version="1.1" xmlns="http://www.w3.org/2000/svg"><path d="M848.299 656.22V272.065c0-53.041-42.998-96.039-96.039-96.039H368.104c-53.04 0-96.038 42.998-96.038 96.039H208.04C208.04 183.663 279.703 112 368.104 112H752.26c88.402 0 160.065 71.663 160.065 160.065V656.22c0 88.401-71.663 160.064-160.065 160.064v-64.026c53.041 0 96.039-42.998 96.039-96.038z" fill="#3B72FF" /><path d="M656.221 848.3v64.026H240.052V848.3h416.169z m64.026-64.025V368.106c0-33.154-25.202-60.408-57.492-63.682l-6.534-0.343H240.052c-33.154 0-60.408 25.201-63.682 57.492l-0.344 6.533v416.169c0 35.36 28.665 64.025 64.026 64.025v64.026l-6.596-0.156c-65.472-3.322-117.978-55.828-121.3-121.299l-0.156-6.596V368.106c0-70.721 57.331-128.051 128.052-128.051h416.169c70.721 0 128.052 57.33 128.052 128.051v416.169c0 68.508-53.8 124.462-121.456 127.895l-6.596 0.156V848.3c35.36 0 64.026-28.665 64.026-64.025z" fill="#000000" /></svg>