<?xml version="1.0" standalone="no"?><!DOCTYPE svg PUBLIC "-//W3C//DTD SVG 1.1//EN" "http://www.w3.org/Graphics/SVG/1.1/DTD/svg11.dtd"><svg class="icon" width="200px" height="200.00px" viewBox="0 0 1024 1024" version="1.1" xmlns="http://www.w3.org/2000/svg"><path d="M112 499.582c0-117.503 51.673-223.048 133.502-295.528 13.784-12.196 34.845-10.911 47.052 2.866 12.21 13.785 10.952 34.874-2.833 47.084-68.242 60.445-111.035 148.083-111.035 245.578 0.004 181.718 148.956 329.62 333.43 329.62 184.475 0 333.427-147.902 333.43-329.62 0-97.495-42.792-185.133-111.034-245.578-13.785-12.21-15.043-33.299-2.833-47.084 12.206-13.777 33.267-15.062 47.051-2.866 81.829 72.48 133.503 178.025 133.503 295.528-0.004 219.202-179.469 396.306-400.117 396.306-220.647 0-400.112-177.104-400.116-396.306z" fill="#000000" /><path d="M512.115 129c18.414 0 33.342 14.928 33.342 33.343v400.115c0 18.415-14.928 33.343-33.342 33.343-18.414 0-33.342-14.928-33.342-33.343V162.343c0-18.415 14.928-33.343 33.342-33.343z" fill="#3B72FF" /></svg>