<?xml version="1.0" standalone="no"?><!DOCTYPE svg PUBLIC "-//W3C//DTD SVG 1.1//EN" "http://www.w3.org/Graphics/SVG/1.1/DTD/svg11.dtd"><svg class="icon" width="200px" height="200.00px" viewBox="0 0 1024 1024" version="1.1" xmlns="http://www.w3.org/2000/svg"><path d="M845.546 512.116c0-184.149-149.281-333.43-333.43-333.43-184.148 0-333.43 149.281-333.43 333.43 0 184.148 149.282 333.429 333.43 333.429v66.686C291.138 912.231 112 733.093 112 512.116 112 291.138 291.138 112 512.116 112c220.978 0 400.117 179.138 400.117 400.116 0 220.977-179.139 400.115-400.117 400.115v-66.686c184.149 0 333.43-149.281 333.43-333.429z" fill="#000000" /><path d="M394.227 394.23c13.021-13.021 34.133-13.021 47.154 0l188.616 188.616c13.022 13.022 13.022 34.133 0 47.154-13.021 13.022-34.132 13.022-47.154 0L394.227 441.384c-13.022-13.021-13.022-34.133 0-47.154z" fill="#3B72FF" /><path d="M630.003 394.23c13.021 13.021 13.021 34.133 0 47.154L441.386 630c-13.021 13.022-34.133 13.022-47.154 0-13.021-13.021-13.021-34.132 0-47.154L582.849 394.23c13.021-13.021 34.133-13.021 47.154 0z" fill="#3B72FF" /></svg>