<?xml version="1.0" standalone="no"?><!DOCTYPE svg PUBLIC "-//W3C//DTD SVG 1.1//EN" "http://www.w3.org/Graphics/SVG/1.1/DTD/svg11.dtd"><svg class="icon" width="200px" height="200.00px" viewBox="0 0 1024 1024" version="1.1" xmlns="http://www.w3.org/2000/svg"><path d="M402.364 219.341c49.882-83.121 170.345-83.122 220.227 0l271.867 453.121c51.35 85.595-10.296 194.482-110.114 194.486H240.611c-99.818-0.004-161.465-108.891-110.114-194.486l271.867-453.121z m165.17 33.047c-24.94-41.567-85.173-41.567-110.113 0L185.554 705.477c-25.679 42.798 5.148 97.255 55.057 97.259h543.733l4.609-0.157c45.645-3.124 73.506-52.308 52.705-93.057l-2.257-4.045-271.867-453.089z" fill="#000000" /><path d="M512.47 642.205c17.732 0 32.105 14.375 32.105 32.106 0 17.732-14.373 32.106-32.105 32.106-17.731 0-32.105-14.374-32.105-32.106 0-17.731 14.374-32.106 32.105-32.106z m0-256.848c17.732 0 32.105 14.375 32.105 32.106v160.53c0 17.732-14.373 32.106-32.105 32.106-17.731 0-32.105-14.374-32.105-32.106v-160.53c0-17.731 14.374-32.106 32.105-32.106z" fill="#3B72FF" /></svg>