<?xml version="1.0" standalone="no"?><!DOCTYPE svg PUBLIC "-//W3C//DTD SVG 1.1//EN" "http://www.w3.org/Graphics/SVG/1.1/DTD/svg11.dtd"><svg class="icon" width="200px" height="200.00px" viewBox="0 0 1024 1024" version="1.1" xmlns="http://www.w3.org/2000/svg"><path d="M176.3 655.778V271.935c0-52.998 42.963-95.961 95.961-95.961h383.844c52.998 0 95.961 42.963 95.961 95.961h63.974c0-88.33-71.605-159.935-159.935-159.935H272.261c-88.329 0-159.935 71.605-159.935 159.935v383.843c0 88.329 71.606 159.935 159.935 159.935v-63.974c-52.998 0-95.961-42.963-95.961-95.961z" fill="#000000" /><path d="M368.221 847.694v63.974h415.831v-63.974H368.221z m-63.974-63.974V367.89c0-33.127 25.181-60.359 57.445-63.63l6.529-0.344h415.831c33.127 0 60.359 25.181 63.63 57.446l0.344 6.528v415.83c0 35.332-28.642 63.974-63.974 63.974v63.974l6.591-0.156c65.418-3.319 117.882-55.783 121.201-121.201l0.156-6.591V367.89c0-70.663-57.284-127.948-127.948-127.948H368.221c-70.664 0-127.948 57.285-127.948 127.948v415.83c0 68.454 53.756 124.362 121.357 127.792l6.591 0.156v-63.974c-35.332 0-63.974-28.642-63.974-63.974z" fill="#000000" /><path d="M720.076 687.765c0-17.665-14.321-31.986-31.987-31.986H464.18c-17.666 0-31.987 14.321-31.987 31.986 0 17.666 14.321 31.986 31.987 31.986h223.909c17.666 0 31.987-14.32 31.987-31.986zM720.076 463.857c0-17.665-14.321-31.986-31.987-31.986H464.18c-17.666 0-31.987 14.321-31.987 31.986s14.321 31.986 31.987 31.986h223.909c17.666 0 31.987-14.321 31.987-31.986z" fill="#3B72FF" /></svg>