<?xml version="1.0" standalone="no"?><!DOCTYPE svg PUBLIC "-//W3C//DTD SVG 1.1//EN" "http://www.w3.org/Graphics/SVG/1.1/DTD/svg11.dtd"><svg class="icon" width="200px" height="200.00px" viewBox="0 0 1024 1024" version="1.1" xmlns="http://www.w3.org/2000/svg"><path d="M412.086 178.686v66.686h200.059v-66.686H412.086z m266.745 133.372H345.4V178.686c0-36.83 29.857-66.686 66.686-66.686h200.059c36.829 0 66.686 29.856 66.686 66.686v133.372z" fill="#000000" /><path d="M112 278.713c0-18.414 14.928-33.342 33.343-33.342h733.546c18.415 0 33.344 14.928 33.344 33.342 0 18.415-14.929 33.342-33.344 33.342H145.343c-18.415 0-33.343-14.927-33.343-33.342z" fill="#000000" /><path d="M800.154 789.93c-5.76 69.125-63.551 122.301-132.916 122.301v-66.686c34.683 0 63.578-26.588 66.458-61.151l39.367-472.337H251.167l39.366 472.337c2.881 34.563 31.776 61.151 66.459 61.151v66.686l-6.48-0.163c-64.313-3.08-117.337-51.859-125.753-115.691l-0.684-6.447-45.39-544.559h666.86L800.154 789.93z m-132.916 55.615v66.686H356.992v-66.686h310.246z" fill="#000000" /><path d="M410.132 412.153c18.381-1.08 34.149 12.942 35.23 31.324l16.671 283.415c1.079 18.381-12.942 34.15-31.323 35.231-18.381 1.08-34.149-12.942-35.231-31.324l-16.671-283.415c-1.079-18.381 12.942-34.15 31.324-35.231zM614.093 412.153c-18.381-1.08-34.149 12.942-35.231 31.324l-16.671 283.415c-1.079 18.381 12.942 34.15 31.324 35.231 18.381 1.08 34.149-12.942 35.23-31.324l16.671-283.415c1.079-18.381-12.942-34.15-31.323-35.231z" fill="#3B72FF" /></svg>