<?xml version="1.0" standalone="no"?><!DOCTYPE svg PUBLIC "-//W3C//DTD SVG 1.1//EN" "http://www.w3.org/Graphics/SVG/1.1/DTD/svg11.dtd"><svg class="icon" width="200px" height="200.00px" viewBox="0 0 1024 1024" version="1.1" xmlns="http://www.w3.org/2000/svg"><path d="M229.79 691.381c-0.003-16.496-12.922-28.2-26.787-28.2-28.997 0.001-71.368-17.214-81.503-63.495a410.842 410.842 0 0 1-9.35-76.572L112 511.84c0-30.137 3.294-59.535 9.47-87.816 10.146-46.427 52.656-63.525 81.533-63.525 13.871 0 26.787-11.706 26.787-28.2-0.001-4.192-0.854-8.022-2.345-11.454-10.889-25.054-20.442-77.107 20.684-113.761l13.468-11.484c31.994-26.084 68.09-47.308 107.208-62.533l5.532-1.954c27.593-8.749 53.564-2.353 72.273 8.117 19.137 10.712 33.455 26.791 42.691 42.991 4.939 8.665 13.611 13.709 22.908 13.709v61.571c-32.656 0-61.127-18.018-76.392-44.795-9.251-16.225-27.269-29.043-44.675-22.277-37.722 14.681-72.196 36.034-102.036 62.622-11.902 10.605-11.555 28.643-5.201 43.262 4.783 11.01 7.455 23.174 7.456 35.986 0 49.577-39.569 89.771-88.358 89.771-9.771-0.002-19.284 5.549-21.375 15.092a349.774 349.774 0 0 0-8.057 74.678c0 25.65 2.826 50.636 8.087 74.679 2.09 9.527 11.59 15.093 21.345 15.092 48.788 0 88.355 40.196 88.358 89.77-0.002 12.809-2.672 24.982-7.456 35.986-6.351 14.616-6.697 32.63 5.201 43.232 29.843 26.591 64.309 47.941 102.036 62.623 17.407 6.773 35.421-6.053 44.675-22.278 15.269-26.765 43.746-44.764 76.392-44.764 32.644 0 61.101 18.001 76.362 44.764 8.671 15.21 25.045 27.442 41.398 23.33l3.277-1.052c33.017-12.848 63.533-30.807 90.643-52.912l11.394-9.711c10.414-9.28 11.464-24.249 7.305-37.64l-2.074-5.592a90.227 90.227 0 0 1-7.456-35.986c0.003-49.57 39.546-89.763 88.327-89.77 8.543 0 16.884-4.269 20.233-11.725l1.113-3.367c5.269-24.043 8.116-49.026 8.117-74.679a349.1 349.1 0 0 0-8.087-74.648c-2.093-9.543-11.604-15.122-21.376-15.122-48.783-0.007-88.327-40.198-88.327-89.771a90.481 90.481 0 0 1 4.269-27.538l3.187-8.448c6.344-14.62 6.668-32.659-5.231-43.262-29.842-26.589-64.312-47.942-102.037-62.622-17.407-6.769-35.428 6.048-44.675 22.277-15.256 26.778-43.706 44.795-76.362 44.795V195.93c9.285 0 17.943-5.044 22.879-13.709l3.698-6.043c9.188-14.084 22.244-27.571 38.992-36.948 18.712-10.474 44.68-16.867 72.274-8.117l5.532 1.954 16.565 6.885c38.241 16.921 73.306 39.683 104.111 67.132 41.118 36.643 31.581 88.686 20.714 113.731a28.368 28.368 0 0 0-2.195 8.388l-0.15 3.096c0 16.504 12.906 28.193 26.756 28.2 27.203 0 66.17 15.145 79.279 55.197l2.254 8.358 2.195 10.643a410.328 410.328 0 0 1 7.306 77.143 410.074 410.074 0 0 1-9.531 87.846c-10.143 46.282-52.513 63.495-81.503 63.495-12.978 0.007-25.135 10.279-26.606 25.163l-0.15 3.037c0.001 4.195 0.857 8.025 2.345 11.454 10.872 25.049 20.406 77.087-20.714 113.731-35.209 31.375-75.982 56.615-120.706 74.017-29.625 11.525-57.823 5.031-77.776-6.133-19.136-10.707-33.453-26.792-42.69-42.991-4.32-7.578-11.487-12.383-19.421-13.468l-3.458-0.241c-9.291 0-17.965 5.042-22.908 13.709-9.239 16.196-23.553 32.284-42.691 42.991-19.953 11.162-48.178 17.663-77.805 6.133-44.708-17.4-85.472-42.648-120.676-74.017-41.128-36.655-31.578-88.704-20.684-113.761l0.992-2.645a28.28 28.28 0 0 0 1.203-5.713l0.15-3.066z" fill="#000000" /><path d="M583.137 511.864c-0.007-39.074-31.708-70.824-70.92-70.83-39.217 0-70.944 31.753-70.951 70.83 0 39.083 31.729 70.86 70.951 70.86v61.571l-6.825-0.18c-70.017-3.545-125.696-61.404-125.696-132.251 0.007-73.124 59.341-132.401 132.521-132.401l6.794 0.181c70.017 3.539 125.69 61.377 125.697 132.22 0 73.127-59.312 132.425-132.491 132.431v-61.571c39.217-0.005 70.92-31.78 70.92-70.86z" fill="#3B72FF" /></svg>