<?xml version="1.0" standalone="no"?><!DOCTYPE svg PUBLIC "-//W3C//DTD SVG 1.1//EN" "http://www.w3.org/Graphics/SVG/1.1/DTD/svg11.dtd"><svg class="icon" width="200px" height="200.00px" viewBox="0 0 1024 1024" version="1.1" xmlns="http://www.w3.org/2000/svg"><path d="M605.666 556.17c11.046-13.806 31.214-16.047 45.02-5.002 13.806 11.045 16.047 31.213 5.002 45.02-78.466 98.082-227.667 98.082-306.133 0-11.045-13.807-8.804-33.975 5.003-45.02 13.806-11.045 33.974-8.804 45.019 5.002 52.834 66.043 153.256 66.043 206.089 0z" fill="#3B72FF" /><path d="M406.465 183.322c50.906-73.763 160.499-73.763 211.404 0l49.334 71.437c16.665 24.147 41.193 41.869 69.468 50.147l83.661 24.479c86.372 25.284 120.251 128.808 65.341 199.68l-53.179 68.654-6.347 8.942a126.652 126.652 0 0 0-20.196 72.187l2.407 86.569c2.476 89.389-86.231 153.389-171.074 123.428l-82.192-29.012a128.97 128.97 0 0 0-85.85 0l-82.192 29.012-7.972 2.533c-82.335 23.403-165.5-39.364-163.102-125.961l2.408-86.569c0.81-29.262-8.567-57.928-26.543-81.129l-53.179-68.654c-53.197-68.661-23.07-167.964 57.399-197.085l7.941-2.595 83.662-24.479c28.275-8.278 52.803-26 69.467-50.147l49.334-71.437z m158.725 36.359c-25.453-36.882-80.592-36.882-106.046 0l-49.302 71.437c-25.051 36.299-61.886 62.833-104.202 75.22l-83.661 24.511c-43.464 12.726-59.713 64.149-32.702 99.011l53.18 68.655c27.015 34.868 41.142 77.984 39.923 122.084l-2.376 86.6c-1.213 43.797 42.611 76.502 85.725 61.276l82.192-29.012a192.99 192.99 0 0 1 128.493 0l82.192 29.012c43.114 15.225 86.937-17.479 85.724-61.276l-2.376-86.6c-1.218-44.1 12.908-87.216 39.924-122.084l53.179-68.655c27.011-34.861 10.763-86.285-32.701-99.011l-83.662-24.511c-42.316-12.387-79.151-38.921-104.201-75.22l-49.303-71.437z" fill="#000000" /></svg>