<?xml version="1.0" standalone="no"?><!DOCTYPE svg PUBLIC "-//W3C//DTD SVG 1.1//EN" "http://www.w3.org/Graphics/SVG/1.1/DTD/svg11.dtd"><svg class="icon" width="200px" height="200.00px" viewBox="0 0 1024 1024" version="1.1" xmlns="http://www.w3.org/2000/svg"><path d="M573.784 727.927c0-34.005-27.566-61.571-61.571-61.571-34.005 0-61.571 27.566-61.571 61.571v92.356h123.142v-92.356z m61.572 153.927H389.071V727.927c0-68.01 55.133-123.142 123.142-123.142 68.01 0 123.143 55.132 123.143 123.142v153.927z" fill="#3B72FF" /><path d="M696.927 820.282v61.571H327.5v-61.571h369.427z m61.571-61.571V501.874a61.638 61.638 0 0 0-18.038-43.563L512.213 230.065 283.967 458.311a61.634 61.634 0 0 0-18.038 43.563v256.837c0 34.004 27.566 61.571 61.571 61.571v61.571l-6.344-0.15c-62.961-3.195-113.454-53.688-116.648-116.649l-0.151-6.343V501.874a123.177 123.177 0 0 1 31.868-82.676l4.209-4.419L512.213 143l271.779 271.779a123.196 123.196 0 0 1 36.077 87.095v256.837c0 65.882-51.737 119.69-116.799 122.992l-6.343 0.15v-61.571c34.005 0 61.571-27.567 61.571-61.571z" fill="#000000" /><path d="M492.789 149.913c12.092-9.862 29.917-9.167 41.188 2.104l369.427 369.427c12.022 12.022 12.022 31.51 0 43.532-12.023 12.023-31.511 12.023-43.533 0L512.21 217.316l-347.66 347.66c-12.023 12.023-31.511 12.023-43.533 0-12.023-12.022-12.023-31.51 0-43.532l369.427-369.427 2.345-2.104z" fill="#000000" /></svg>