<?xml version="1.0" standalone="no"?><!DOCTYPE svg PUBLIC "-//W3C//DTD SVG 1.1//EN" "http://www.w3.org/Graphics/SVG/1.1/DTD/svg11.dtd"><svg class="icon" width="200px" height="200.00px" viewBox="0 0 1024 1024" version="1.1" xmlns="http://www.w3.org/2000/svg"><path d="M712.18 845.121v66.647H312.295v-66.647H712.18z m66.647-66.648V245.295c0-36.809-29.839-66.648-66.647-66.648H312.295c-34.512 0-62.882 26.233-66.29 59.846l-0.358 6.802v533.178c0 36.809 29.84 66.648 66.648 66.648v66.647l-6.867-0.163c-68.151-3.458-122.807-58.114-126.265-126.265l-0.163-6.867V245.295C179 171.678 238.678 112 312.295 112H712.18c73.616 0 133.294 59.678 133.294 133.295v533.178l-0.162 6.867c-3.458 68.151-58.114 122.807-126.266 126.265l-6.866 0.163v-66.647c36.808 0 66.647-29.839 66.647-66.648z" fill="#000000" /><path d="M378.936 711.827c0-18.404 14.919-33.323 33.323-33.323h199.943c18.404 0 33.323 14.919 33.323 33.323 0 18.403-14.919 33.322-33.323 33.322H412.259c-18.404 0-33.323-14.919-33.323-33.322z" fill="#3B72FF" /></svg>