<?xml version="1.0" standalone="no"?><!DOCTYPE svg PUBLIC "-//W3C//DTD SVG 1.1//EN" "http://www.w3.org/Graphics/SVG/1.1/DTD/svg11.dtd"><svg class="icon" width="200px" height="200.00px" viewBox="0 0 1024 1024" version="1.1" xmlns="http://www.w3.org/2000/svg"><path d="M713.605 713.606c14.876-14.876 38.989-14.876 53.866 0l133.326 133.326c14.877 14.877 14.877 38.99 0 53.867-14.876 14.876-38.99 14.876-53.866 0L713.605 767.472c-14.877-14.876-14.877-38.989 0-53.866z" fill="#3B72FF" /><path d="M797.679 492.932c0-168.306-136.439-304.746-304.746-304.746s-304.746 136.44-304.746 304.746c0 168.307 136.439 304.746 304.746 304.746v76.186C282.549 873.864 112 703.315 112 492.932S282.549 112 492.933 112c210.383 0 380.933 170.549 380.933 380.932s-170.55 380.932-380.933 380.932v-76.186c168.307 0 304.746-136.439 304.746-304.746z" fill="#000000" /></svg>