<?xml version="1.0" standalone="no"?><!DOCTYPE svg PUBLIC "-//W3C//DTD SVG 1.1//EN" "http://www.w3.org/Graphics/SVG/1.1/DTD/svg11.dtd"><svg class="icon" width="200px" height="200.00px" viewBox="0 0 1024 1024" version="1.1" xmlns="http://www.w3.org/2000/svg"><path d="M845.546 512.116c0-184.149-149.281-333.43-333.43-333.43-184.148 0-333.43 149.281-333.43 333.43 0 184.148 149.282 333.429 333.43 333.429v66.686C291.138 912.231 112 733.093 112 512.116 112 291.138 291.138 112 512.116 112c220.978 0 400.117 179.138 400.117 400.116 0 220.977-179.139 400.115-400.117 400.115v-66.686c184.149 0 333.43-149.281 333.43-333.429z" fill="#000000" /><path d="M378.738 512.117c0-18.414 14.928-33.342 33.343-33.342h200.058c18.415 0 33.343 14.928 33.343 33.342 0 18.415-14.928 33.342-33.343 33.342H412.081c-18.415 0-33.343-14.927-33.343-33.342z" fill="#3B72FF" /><path d="M512.121 378.747c18.414 0 33.342 14.928 33.342 33.343v200.058c0 18.415-14.928 33.343-33.342 33.343-18.414 0-33.342-14.928-33.342-33.343V412.09c0-18.415 14.928-33.343 33.342-33.343z" fill="#3B72FF" /></svg>