<?xml version="1.0" standalone="no"?><!DOCTYPE svg PUBLIC "-//W3C//DTD SVG 1.1//EN" "http://www.w3.org/Graphics/SVG/1.1/DTD/svg11.dtd"><svg class="icon" width="200px" height="200.00px" viewBox="0 0 1024 1024" version="1.1" xmlns="http://www.w3.org/2000/svg"><path d="M512.112 528.744c18.414 0 33.342 14.928 33.342 33.343v166.715c0 18.415-14.928 33.343-33.342 33.343-18.414 0-33.342-14.928-33.342-33.343V562.087c0-18.415 14.928-33.343 33.342-33.343zM710.808 468.623c15.948-9.207 36.34-3.743 45.547 12.205l88.102 152.598c9.208 15.947 3.744 36.339-12.203 45.547-15.948 9.207-36.34 3.743-45.547-12.205L698.604 514.17c-9.207-15.948-3.743-36.339 12.204-45.547zM312.232 470.44c-15.948-9.208-36.34-3.743-45.547 12.204l-88.66 153.564c-9.207 15.948-3.744 36.34 12.204 45.547 15.947 9.207 36.339 3.743 45.546-12.205l88.661-153.564c9.207-15.947 3.743-36.339-12.204-45.546z" fill="#3B72FF" /><path d="M878.889 262c18.415 0 33.344 14.928 33.344 33.343 0 7.652-2.157 14.512-3.713 18.788-1.796 4.936-4.166 10.055-6.837 15.108-5.377 10.17-12.902 21.965-22.175 34.548-18.592 25.231-45.466 55.369-79.483 84.432-67.779 57.909-166.875 113.868-287.909 113.868-121.034 0-220.13-55.959-287.909-113.868-34.017-29.063-60.89-59.201-79.483-84.432-9.272-12.583-16.797-24.378-22.174-34.548-2.672-5.053-5.041-10.172-6.838-15.108-1.555-4.276-3.712-11.136-3.712-18.788C112 276.928 126.928 262 145.343 262c17.137 0 31.239 12.93 33.115 29.566 0.479 1.265 1.428 3.424 3.061 6.512 3.459 6.542 9.052 15.497 16.899 26.147 15.649 21.236 39.049 47.624 69.096 73.296 60.363 51.573 144.658 97.88 244.602 97.88 99.944 0 184.24-46.307 244.603-97.88 30.046-25.672 53.446-52.06 69.095-73.296 7.848-10.65 13.44-19.605 16.9-26.147 1.628-3.079 2.548-5.245 3.028-6.512C847.617 274.929 861.751 262 878.889 262z" fill="#000000" /></svg>