<?xml version="1.0" standalone="no"?><!DOCTYPE svg PUBLIC "-//W3C//DTD SVG 1.1//EN" "http://www.w3.org/Graphics/SVG/1.1/DTD/svg11.dtd"><svg class="icon" width="200px" height="200.00px" viewBox="0 0 1024 1024" version="1.1" xmlns="http://www.w3.org/2000/svg"><path d="M112.001 184.781c0-20.084 16.282-36.365 36.366-36.365H875.68c20.085 0 36.366 16.281 36.366 36.365 0 20.083-16.281 36.364-36.366 36.364H148.367c-20.084 0-36.366-16.281-36.366-36.364zM112 839.356c0-20.084 16.281-36.365 36.366-36.365h727.313c20.084 0 36.366 16.281 36.366 36.365 0 20.083-16.282 36.364-36.366 36.364H148.366c-20.085 0-36.366-16.281-36.366-36.364zM402.926 512.07c0-20.084 16.281-36.365 36.365-36.365h436.388c20.085 0 36.366 16.281 36.366 36.365 0 20.083-16.281 36.364-36.366 36.364H439.291c-20.084 0-36.365-16.281-36.365-36.364z" fill="#000000" /><path d="M171.646 379.947L296.67 484.133c17.446 14.539 17.446 41.335 0 55.874L171.646 644.193C147.96 663.931 112 647.088 112 616.256V407.884c0-30.832 35.96-47.675 59.646-27.937z" fill="#3B72FF" /></svg>