<?xml version="1.0" standalone="no"?><!DOCTYPE svg PUBLIC "-//W3C//DTD SVG 1.1//EN" "http://www.w3.org/Graphics/SVG/1.1/DTD/svg11.dtd"><svg class="icon" width="200px" height="200.00px" viewBox="0 0 1024 1024" version="1.1" xmlns="http://www.w3.org/2000/svg"><path d="M678.832 145c92.074 0 166.715 74.641 166.715 166.715h-66.686c0-55.245-44.785-100.029-100.029-100.029h-333.43c-55.245 0-100.03 44.784-100.03 100.029h-66.686c0-92.074 74.641-166.715 166.716-166.715h333.43z" fill="#000000" /><path d="M778.86 811.859v66.686H245.372v-66.686H778.86z m66.686-66.685v-333.43c0-34.532-26.248-62.918-59.88-66.328l-6.806-0.358H245.372c-36.83 0-66.686 29.856-66.686 66.686v333.43c0 36.829 29.856 66.685 66.686 66.685v66.686c-71.355 0-129.634-56.034-133.209-126.501l-0.163-6.87v-333.43c0-73.659 59.713-133.372 133.372-133.372H778.86l6.871 0.163c70.467 3.575 126.502 61.854 126.502 133.209v333.43c0 71.355-56.035 129.633-126.502 133.209l-6.871 0.162v-66.686c36.83 0 66.686-29.856 66.686-66.685z" fill="#000000" /><path d="M622.108 471.301c13.137-12.903 34.278-12.714 47.181 0.423 12.903 13.138 12.714 34.278-0.423 47.182L499.09 685.621c-12.972 12.725-33.759 12.734-46.726 0l-97.001-95.275c-13.128-12.901-13.314-34.012-0.423-47.149 12.904-13.138 34.044-13.327 47.182-0.424l73.589 72.287 146.397-143.759z" fill="#3B72FF" /></svg>