<?xml version="1.0" standalone="no"?><!DOCTYPE svg PUBLIC "-//W3C//DTD SVG 1.1//EN" "http://www.w3.org/Graphics/SVG/1.1/DTD/svg11.dtd"><svg class="icon" width="200px" height="200.00px" viewBox="0 0 1024 1024" version="1.1" xmlns="http://www.w3.org/2000/svg"><path d="M112 184.365C112 164.281 128.282 148 148.366 148h727.315c20.084 0 36.366 16.281 36.366 36.365 0 20.083-16.282 36.364-36.366 36.364H148.366c-20.084 0-36.366-16.281-36.366-36.364zM112 838.948c0-20.084 16.282-36.365 36.366-36.365h727.315c20.084 0 36.366 16.281 36.366 36.365 0 20.084-16.282 36.365-36.366 36.365H148.366c-20.084 0-36.366-16.281-36.366-36.365zM112 511.656c0-20.084 16.282-36.365 36.366-36.365h436.389c20.084 0 36.365 16.281 36.365 36.365 0 20.083-16.281 36.364-36.365 36.364H148.366c-20.084 0-36.366-16.281-36.366-36.364z" fill="#000000" /><path d="M753.499 379.533L878.522 483.72c17.447 14.538 17.447 41.335 0 55.873L753.499 643.78c-23.686 19.738-59.647 2.895-59.647-27.937V407.47c0-30.832 35.961-47.675 59.647-27.937z" fill="#3B72FF" /></svg>