<?xml version="1.0" standalone="no"?><!DOCTYPE svg PUBLIC "-//W3C//DTD SVG 1.1//EN" "http://www.w3.org/Graphics/SVG/1.1/DTD/svg11.dtd"><svg class="icon" width="200px" height="200.00px" viewBox="0 0 1024 1024" version="1.1" xmlns="http://www.w3.org/2000/svg"><path d="M699.768 444.854l5.526-0.197c56.287-4.29 83.209-73.679 42.101-114.791L559.256 141.727c-26.306-26.303-68.948-26.303-95.254 0L275.863 329.866c-42.431 42.435-12.382 114.984 47.627 114.988h376.278z m-188.139-255.5l188.139 188.139H323.49l188.139-188.139z" fill="#000000" /><path d="M699.768 579.577l5.526 0.197c56.287 4.291 83.209 73.68 42.101 114.791L559.256 882.704c-26.306 26.303-68.948 26.303-95.254 0L275.863 694.565c-42.431-42.434-12.382-114.984 47.627-114.988h376.278zM511.629 835.078l188.139-188.139H323.49l188.139 188.139z" fill="#3B72FF" /></svg>