<?xml version="1.0" standalone="no"?><!DOCTYPE svg PUBLIC "-//W3C//DTD SVG 1.1//EN" "http://www.w3.org/Graphics/SVG/1.1/DTD/svg11.dtd"><svg class="icon" width="200px" height="200.00px" viewBox="0 0 1024 1024" version="1.1" xmlns="http://www.w3.org/2000/svg"><path d="M699.768 108l5.526 0.197c56.287 4.291 83.209 73.68 42.101 114.791L559.256 411.127c-26.306 26.303-68.948 26.303-95.254 0L275.863 222.988C233.432 180.554 263.481 108.004 323.49 108h376.278zM511.629 363.5l188.139-188.138H323.49L511.629 363.5z" fill="#000000" /><path d="M699.768 916.343l5.526-0.198c56.287-4.29 83.209-73.679 42.101-114.791L559.256 613.216c-26.306-26.303-68.948-26.303-95.254 0L275.863 801.354c-42.431 42.435-12.382 114.985 47.627 114.989h376.278zM511.629 660.842l188.139 188.139H323.49l188.139-188.139z" fill="#3B72FF" /></svg>